<?xml version="1.0" encoding="UTF-8" standalone="no"?>
<!-- Created with Inkscape (http://www.inkscape.org/) -->

<svg
   width="256.55899"
   height="256.55899"
   viewBox="0 0 67.881234 67.881234"
   version="1.1"
   id="svg1"
   xml:space="preserve"
   inkscape:version="1.4.2 (ebf0e940d0, 2025-05-08)"
   sodipodi:docname="mixtura_logo.svg"
   inkscape:export-filename="mixtura_logo.png"
   inkscape:export-xdpi="96"
   inkscape:export-ydpi="96"
   xmlns:inkscape="http://www.inkscape.org/namespaces/inkscape"
   xmlns:sodipodi="http://sodipodi.sourceforge.net/DTD/sodipodi-0.dtd"
   xmlns:xlink="http://www.w3.org/1999/xlink"
   xmlns="http://www.w3.org/2000/svg"
   xmlns:svg="http://www.w3.org/2000/svg"><sodipodi:namedview
     id="namedview1"
     pagecolor="#ffffff"
     bordercolor="#cccccc"
     borderopacity="1"
     inkscape:showpageshadow="0"
     inkscape:pageopacity="1"
     inkscape:pagecheckerboard="0"
     inkscape:deskcolor="#d1d1d1"
     inkscape:document-units="px"
     inkscape:zoom="4"
     inkscape:cx="132.75"
     inkscape:cy="159.875"
     inkscape:window-width="1920"
     inkscape:window-height="1016"
     inkscape:window-x="0"
     inkscape:window-y="0"
     inkscape:window-maximized="1"
     inkscape:current-layer="layer3" /><defs
     id="defs1"><inkscape:perspective
       sodipodi:type="inkscape:persp3d"
       inkscape:vp_x="0 : 33.940617 : 1"
       inkscape:vp_y="0 : 1000 : 0"
       inkscape:vp_z="67.881234 : 33.940617 : 1"
       inkscape:persp3d-origin="33.940617 : 22.627078 : 1"
       id="perspective18" /><linearGradient
       id="linearGradient12"
       inkscape:collect="always"><stop
         style="stop-color:#ff0000;stop-opacity:1;"
         offset="0"
         id="stop12" /><stop
         style="stop-color:#ffff7f;stop-opacity:1;"
         offset="0.3129307"
         id="stop14" /><stop
         style="stop-color:#00ff00;stop-opacity:1;"
         offset="0.5118807"
         id="stop15" /><stop
         style="stop-color:#0055ff;stop-opacity:1;"
         offset="0.76678258"
         id="stop17" /><stop
         style="stop-color:#ff55ff;stop-opacity:1;"
         offset="0.94270784"
         id="stop18" /></linearGradient><inkscape:path-effect
       effect="powerstroke"
       message=""
       id="path-effect11"
       is_visible="true"
       lpeversion="1.3"
       scale_width="1"
       interpolator_type="CentripetalCatmullRom"
       interpolator_beta="0.2"
       start_linecap_type="zerowidth"
       end_linecap_type="zerowidth"
       offset_points="0.092794067,0.088950929 | 0.44817187,0.42539203 | 0.82791231,0.30295583"
       linejoin_type="round"
       miter_limit="4"
       not_jump="false"
       sort_points="true" /><inkscape:path-effect
       effect="powerstroke"
       message=""
       id="path-effect9"
       is_visible="true"
       lpeversion="1.3"
       scale_width="1"
       interpolator_type="CentripetalCatmullRom"
       interpolator_beta="0.2"
       start_linecap_type="zerowidth"
       end_linecap_type="zerowidth"
       offset_points="0.15121808,-0.25870193 | 0.33795794,-0.11051383 | 0.72578086,-0.087747669"
       linejoin_type="round"
       miter_limit="4"
       not_jump="false"
       sort_points="true" /><inkscape:path-effect
       effect="powerstroke"
       message=""
       id="path-effect5"
       is_visible="true"
       lpeversion="1.3"
       scale_width="1"
       interpolator_type="CentripetalCatmullRom"
       interpolator_beta="0.2"
       start_linecap_type="zerowidth"
       end_linecap_type="zerowidth"
       offset_points="0.12982648,-0.29432361 | 0.42933384,-0.19795063 | 0.84368056,-0.089466025"
       linejoin_type="round"
       miter_limit="4"
       not_jump="false"
       sort_points="true" /><inkscape:path-effect
       effect="powerstroke"
       message=""
       id="path-effect3"
       is_visible="true"
       lpeversion="1.3"
       scale_width="1"
       interpolator_type="CentripetalCatmullRom"
       interpolator_beta="0.2"
       start_linecap_type="zerowidth"
       end_linecap_type="zerowidth"
       offset_points="0.21791766,-0.086546813 | 0.56286264,-0.15213409 | 0.87377333,-0.1588987"
       linejoin_type="round"
       miter_limit="4"
       not_jump="false"
       sort_points="true" /><inkscape:path-effect
       effect="powerstroke"
       message=""
       id="path-effect1"
       is_visible="true"
       lpeversion="1.3"
       scale_width="1"
       interpolator_type="CentripetalCatmullRom"
       interpolator_beta="0.2"
       start_linecap_type="zerowidth"
       end_linecap_type="zerowidth"
       offset_points="0.29246456,0.073853014 | 0.54113226,0.14009562 | 0.91537479,0.33944418"
       linejoin_type="round"
       miter_limit="4"
       not_jump="false"
       sort_points="true" /><inkscape:path-effect
       effect="powerstroke"
       message=""
       id="path-effect56"
       is_visible="true"
       lpeversion="1.3"
       scale_width="1"
       interpolator_type="CentripetalCatmullRom"
       interpolator_beta="0.2"
       start_linecap_type="zerowidth"
       end_linecap_type="zerowidth"
       offset_points="0.20385525,0.13570449 | 0.53534369,0.27391352 | 0.85260676,0.22841859"
       linejoin_type="round"
       miter_limit="4"
       not_jump="false"
       sort_points="true" /><inkscape:path-effect
       effect="powerstroke"
       message=""
       id="path-effect55"
       is_visible="true"
       lpeversion="1.3"
       scale_width="1"
       interpolator_type="CentripetalCatmullRom"
       interpolator_beta="0.18021201"
       start_linecap_type="zerowidth"
       end_linecap_type="zerowidth"
       offset_points="0.28009572,0.18616451 | 0.61412934,0.50611466 | 0.9060365,0.3377589"
       linejoin_type="round"
       miter_limit="4"
       not_jump="false"
       sort_points="true" /><linearGradient
       id="linearGradient39"
       inkscape:collect="always"><stop
         style="stop-color:#aa767c;stop-opacity:1;"
         offset="0"
         id="stop39" /><stop
         style="stop-color:#91656a;stop-opacity:1;"
         offset="1"
         id="stop40" /></linearGradient><linearGradient
       id="linearGradient36"
       inkscape:collect="always"><stop
         style="stop-color:#d6a184;stop-opacity:1;"
         offset="0"
         id="stop36" /><stop
         style="stop-color:#bd8e74;stop-opacity:1;"
         offset="1"
         id="stop37" /></linearGradient><linearGradient
       id="linearGradient34"
       inkscape:collect="always"><stop
         style="stop-color:#aa767c;stop-opacity:1;"
         offset="0"
         id="stop34" /><stop
         style="stop-color:#91656a;stop-opacity:1;"
         offset="1"
         id="stop35" /></linearGradient><linearGradient
       id="linearGradient25"
       inkscape:swatch="gradient"><stop
         style="stop-color:#a7bed3;stop-opacity:1;"
         offset="0.67516392"
         id="stop25" /><stop
         style="stop-color:#6b7b87;stop-opacity:1;"
         offset="1"
         id="stop26" /></linearGradient><linearGradient
       id="swatch16"
       inkscape:swatch="solid"><stop
         style="stop-color:#ffff7f;stop-opacity:1;"
         offset="0"
         id="stop16" /></linearGradient><linearGradient
       inkscape:collect="always"
       xlink:href="#linearGradient34"
       id="linearGradient35"
       x1="21.741271"
       y1="55.913274"
       x2="49.075782"
       y2="55.913274"
       gradientUnits="userSpaceOnUse" /><linearGradient
       inkscape:collect="always"
       xlink:href="#linearGradient36"
       id="linearGradient37"
       x1="22.676384"
       y1="35.676801"
       x2="43.857886"
       y2="35.676801"
       gradientUnits="userSpaceOnUse" /><linearGradient
       inkscape:collect="always"
       xlink:href="#linearGradient39"
       id="linearGradient40"
       x1="28.620134"
       y1="64.984785"
       x2="43.127067"
       y2="64.984785"
       gradientUnits="userSpaceOnUse" /><inkscape:path-effect
       effect="powerstroke"
       message=""
       id="path-effect55-7"
       is_visible="true"
       lpeversion="1.3"
       scale_width="1"
       interpolator_type="CentripetalCatmullRom"
       interpolator_beta="0.18021201"
       start_linecap_type="zerowidth"
       end_linecap_type="zerowidth"
       offset_points="0.28009572,0.18616451 | 0.61412934,0.50611466 | 0.9060365,0.3377589"
       linejoin_type="round"
       miter_limit="4"
       not_jump="false"
       sort_points="true" /><inkscape:path-effect
       effect="powerstroke"
       message=""
       id="path-effect56-9"
       is_visible="true"
       lpeversion="1.3"
       scale_width="1"
       interpolator_type="CentripetalCatmullRom"
       interpolator_beta="0.2"
       start_linecap_type="zerowidth"
       end_linecap_type="zerowidth"
       offset_points="0.20385525,0.13570449 | 0.53534369,0.27391352 | 0.85260676,0.22841859"
       linejoin_type="round"
       miter_limit="4"
       not_jump="false"
       sort_points="true" /><inkscape:path-effect
       effect="powerstroke"
       message=""
       id="path-effect55-0"
       is_visible="true"
       lpeversion="1.3"
       scale_width="1"
       interpolator_type="CentripetalCatmullRom"
       interpolator_beta="0.18021201"
       start_linecap_type="zerowidth"
       end_linecap_type="zerowidth"
       offset_points="0.28009572,0.18616451 | 0.61412934,0.50611466 | 0.9060365,0.3377589"
       linejoin_type="round"
       miter_limit="4"
       not_jump="false"
       sort_points="true" /><inkscape:path-effect
       effect="fill_between_many"
       method="bsplinespiro"
       autoreverse="false"
       close="false"
       join="false"
       linkedpaths="#path1,0,1"
       id="path-effect2" /><inkscape:path-effect
       effect="fill_between_many"
       method="bsplinespiro"
       autoreverse="false"
       close="false"
       join="false"
       linkedpaths="#path2,0,1"
       id="path-effect4" /><inkscape:path-effect
       effect="fill_between_many"
       method="bsplinespiro"
       autoreverse="false"
       close="false"
       join="false"
       linkedpaths="#path4,0,1"
       id="path-effect6" /><inkscape:path-effect
       effect="fill_between_many"
       method="bsplinespiro"
       autoreverse="false"
       close="false"
       join="false"
       linkedpaths="#path9,0,1"
       id="path-effect10" /><inkscape:path-effect
       effect="fill_between_many"
       method="bsplinespiro"
       autoreverse="false"
       close="false"
       join="false"
       linkedpaths="#path10,0,1"
       id="path-effect12" /><inkscape:path-effect
       effect="powerstroke"
       message=""
       id="path-effect55-75"
       is_visible="true"
       lpeversion="1.3"
       scale_width="1"
       interpolator_type="CentripetalCatmullRom"
       interpolator_beta="0.18021201"
       start_linecap_type="zerowidth"
       end_linecap_type="zerowidth"
       offset_points="0.28009572,0.18616451 | 0.61412934,0.50611466 | 0.9060365,0.3377589"
       linejoin_type="round"
       miter_limit="4"
       not_jump="false"
       sort_points="true" /><inkscape:path-effect
       effect="powerstroke"
       message=""
       id="path-effect56-3"
       is_visible="true"
       lpeversion="1.3"
       scale_width="1"
       interpolator_type="CentripetalCatmullRom"
       interpolator_beta="0.2"
       start_linecap_type="zerowidth"
       end_linecap_type="zerowidth"
       offset_points="0.20385525,0.13570449 | 0.53534369,0.27391352 | 0.85260676,0.22841859"
       linejoin_type="round"
       miter_limit="4"
       not_jump="false"
       sort_points="true" /><radialGradient
       inkscape:collect="always"
       xlink:href="#linearGradient12"
       id="radialGradient1"
       cx="35.175648"
       cy="48.371166"
       fx="35.175648"
       fy="48.371166"
       r="13.114298"
       gradientTransform="matrix(1,0,0,0.07706135,0,44.643618)"
       gradientUnits="userSpaceOnUse" /></defs><image
     width="142.83556"
     height="73.591385"
     preserveAspectRatio="none"
     style="display:none;opacity:1;image-rendering:optimizeQuality"
     xlink:href="../Pictures/KDEConnect/IMG_20260118_190547.jpg"
     id="image1"
     x="-29.057005"
     y="-2.1286325" /><g
     inkscape:label="Tigela"
     inkscape:groupmode="layer"
     id="layer1"
     style="display:inline;stroke-width:0.079375;stroke-dasharray:none;stroke-dashoffset:0;stroke:#63474d;stroke-opacity:1;stroke-linejoin:miter;stroke-linecap:square;paint-order:fill markers stroke"><path
       style="display:inline;opacity:1;fill:url(#linearGradient40);fill-opacity:1;stroke-width:0.079375;stroke:#63474d;stroke-opacity:1;stroke-linecap:square;stroke-linejoin:miter;paint-order:fill markers stroke;stroke-dasharray:none;stroke-dashoffset:0"
       d="m 28.67305,63.933154 0.06458,0.984826 c 0,0 0.431503,0.740774 1.598328,1.000975 1.166826,0.260201 3.47496,0.630245 4.778841,0.581212 1.30388,-0.04903 3.700374,-0.242706 4.940289,-0.516633 1.239915,-0.273928 3.002922,-1.210855 3.002922,-1.210855 l 0.01614,-1.307724 z"
       id="path7"
       sodipodi:nodetypes="cczzzccc" /><path
       style="display:inline;opacity:1;fill:url(#linearGradient35);fill-opacity:1;stroke-width:0.079375;stroke:#63474d;stroke-opacity:1;stroke-linecap:square;stroke-linejoin:miter;paint-order:fill markers stroke;stroke-dasharray:none;stroke-dashoffset:0"
       d="m 21.795393,48.724811 c 0,0 -0.05138,4.729951 0.516631,6.909948 0.568007,2.179997 1.591253,4.588383 2.776895,5.973551 1.185642,1.385168 1.825259,1.772777 3.616421,2.42171 1.791162,0.648933 4.633299,0.81229 7.039105,0.742659 2.405806,-0.06963 5.485453,-0.372859 7.26513,-1.19471 1.779677,-0.821851 2.341153,-1.492442 3.358105,-2.841474 1.016952,-1.349032 1.864519,-3.09784 2.357131,-5.230895 0.492612,-2.133055 0.226028,-7.394289 0.226028,-7.394289 0,0 -0.02004,-0.731044 -2.260265,-0.928321 -2.240225,-0.197277 -8.458627,-0.161001 -11.139866,-0.07265 -2.681239,0.08835 -9.152877,0.383305 -11.446617,0.686152 -2.29374,0.302847 -2.308698,0.928321 -2.308698,0.928321 z"
       id="path6"
       sodipodi:nodetypes="czzzzzzzczzzcc" /><path
       style="display:inline;opacity:1;fill:url(#radialGradient1);fill-opacity:1;stroke-width:0.079375;stroke:#63474d;stroke-opacity:1;stroke-linecap:square;stroke-linejoin:miter;paint-order:fill markers stroke;stroke-dasharray:none;stroke-dashoffset:0"
       d="m 22.192805,48.632381 c 0,0 0.122175,-0.292983 2.146217,-0.525137 2.024042,-0.232153 7.663726,-0.54172 9.954798,-0.616468 2.291072,-0.07475 7.721674,-0.135446 10.046125,-0.04566 2.324452,0.08978 3.829888,0.06481 3.90429,0.342481 0.0744,0.277673 -0.464705,0.540767 -2.557195,0.844789 -2.09249,0.304023 -7.745764,0.611162 -10.09179,0.684963 -2.346025,0.0738 -8.520503,-0.02684 -10.776753,-0.18266 -2.25625,-0.155825 -2.407218,-0.123896 -2.625692,-0.502304 -0.218474,-0.378408 0,-4e-6 0,-4e-6 z"
       id="path8"
       sodipodi:nodetypes="czzzzzzzzc" /><text
       xml:space="preserve"
       style="font-style:normal;font-variant:normal;font-weight:normal;font-stretch:normal;font-size:7.76111px;font-family:'TeX Gyre Chorus';-inkscape-font-specification:'TeX Gyre Chorus';text-align:start;writing-mode:lr-tb;direction:ltr;text-anchor:start;fill:#63474d;fill-opacity:1;stroke:#63474d;stroke-width:0.0529167;stroke-linecap:square;stroke-linejoin:miter;stroke-dasharray:none;stroke-dashoffset:0;stroke-opacity:1;paint-order:fill markers stroke"
       x="23.018753"
       y="56.819275"
       id="text56"><tspan
         id="tspan56"
         style="font-style:normal;font-variant:normal;font-weight:normal;font-stretch:normal;font-size:7.76111px;font-family:'TeX Gyre Chorus';-inkscape-font-specification:'TeX Gyre Chorus';fill:#63474d;fill-opacity:1;stroke-width:0.0529167;stroke:#63474d;stroke-opacity:1"
         x="23.018753"
         y="56.819275"
         sodipodi:role="line">Mixtura</tspan></text></g><g
     inkscape:groupmode="layer"
     id="layer3"
     inkscape:label="Colher"
     style="stroke:#63474d;stroke-opacity:1;stroke-linecap:square;stroke-linejoin:miter;paint-order:fill markers stroke;stroke-width:0.079375;stroke-dasharray:none;stroke-dashoffset:0"><path
       style="display:inline;opacity:1;fill:url(#linearGradient37);fill-opacity:1;stroke-width:0.079375;stroke:#63474d;stroke-opacity:1;stroke-linecap:square;stroke-linejoin:miter;paint-order:fill markers stroke;stroke-dasharray:none;stroke-dashoffset:0"
       d="m 36.152523,49.053375 7.652449,-0.470016 c 0,0 -0.55396,-1.088332 -1.204498,-1.535402 -0.650538,-0.44707 -1.276226,-0.881798 -1.93737,-1.049408 -0.661144,-0.16761 -1.656598,0.04981 -2.171464,-0.258318 -0.514866,-0.308131 -0.73239,-0.822087 -1.283509,-1.622544 -0.551119,-0.800457 -1.058666,-1.794034 -1.888932,-3.180514 -0.830266,-1.38648 -2.079212,-3.30481 -3.09979,-5.134025 -1.020578,-1.829215 -1.964246,-3.820936 -3.00292,-5.844395 -1.038674,-2.023459 -2.436399,-5.099769 -3.228949,-6.296447 -0.79255,-1.196678 -0.720821,-1.093616 -1.065552,-1.259289 -0.34473,-0.165672 -0.57795,-0.10429 -0.904105,-0.01615 -0.326156,0.08814 -0.709926,0.391333 -0.960612,0.702296 -0.250685,0.310964 -0.381398,0.233819 -0.30675,1.12206 0.07465,0.888241 1.29346,2.644508 1.985803,3.721361 0.692343,1.076852 1.490161,2.131209 2.074597,2.857619 0.584436,0.726409 0.814766,1.036832 1.493389,1.832426 0.678624,0.795593 1.485343,2.011518 2.332914,3.124009 0.847571,1.11249 1.728856,2.388626 2.567014,3.62449 0.838158,1.235863 1.743348,2.699579 2.316768,3.842448 0.573419,1.142869 0.907641,2.057006 0.992902,2.841473 0.08526,0.784467 -0.03254,1.149215 -0.104941,1.646763 -0.0724,0.497549 -0.256444,1.351563 -0.256444,1.351563 z"
       id="path16"
       sodipodi:nodetypes="cczzzzzzzzzzzzzzzzzzzzc" /><path
       style="fill:#63474d;fill-opacity:1;fill-rule:nonzero;stroke:#63474d;stroke-width:0.0529167;stroke-linecap:square;stroke-linejoin:miter;stroke-dasharray:none;stroke-dashoffset:0;stroke-opacity:1;paint-order:fill markers stroke"
       d="m 37.111826,45.517677 c 0.820565,0.07102 2.006297,0.157814 3.157348,0.11902 0.194346,-0.0065 0.388949,-0.01597 0.582542,-0.02891 0.973861,-0.06512 1.78806,-0.211011 2.426178,-0.450478 0.0887,-0.03329 0.17266,-0.06789 0.252022,-0.103673 0.198835,-0.08964 0.382437,-0.189045 0.548254,-0.299602 0.231524,-0.154366 0.415161,-0.321801 0.552909,-0.496089 0.128149,-0.162142 0.209562,-0.321598 0.252036,-0.463888 0.01039,-0.03481 0.01843,-0.0703 0.02431,-0.105969 0.0431,-0.26185 -0.03526,-0.469155 -0.06054,-0.561 -0.05754,0.105393 -0.16835,0.226724 -0.31713,0.397668 -0.01891,0.02172 -0.03764,0.04363 -0.05543,0.06538 -0.07205,0.08807 -0.15565,0.193897 -0.263718,0.307722 -0.116928,0.123157 -0.261464,0.254654 -0.451625,0.387434 -0.136511,0.09532 -0.290255,0.186867 -0.463289,0.273119 -0.06892,0.03435 -0.14215,0.0691 -0.220164,0.103982 -0.56987,0.254813 -1.304204,0.475321 -2.259441,0.625956 -0.187533,0.02957 -0.377023,0.05539 -0.567223,0.07771 -1.153496,0.135348 -2.285968,0.16233 -3.137032,0.151628 z"
       id="path56"
       sodipodi:nodetypes="cc"
       inkscape:path-effect="#path-effect56"
       inkscape:original-d="m 37.111826,45.517677 c 6.006976,0.297303 7.587694,-1.121323 7.73505,-2.390593" /><path
       style="fill:#63474d;fill-opacity:1;fill-rule:nonzero;stroke:#63474d;stroke-width:0.0529167;stroke-linecap:square;stroke-linejoin:miter;stroke-dasharray:none;stroke-dashoffset:0;stroke-opacity:1;paint-order:fill markers stroke"
       d="m 31.882292,43.19323 c 0.07014,0.133606 0.191532,0.327972 0.398081,0.531127 0.147682,0.145255 0.330525,0.287026 0.55714,0.417438 0.420925,0.242234 0.926074,0.407046 1.483107,0.510611 0.138676,0.02578 0.27658,0.04704 0.412232,0.06463 0.431436,0.05594 0.897031,0.08845 1.392764,0.09084 0.632638,0.0031 1.292101,-0.04323 1.944312,-0.142403 0.606298,-0.09219 1.191605,-0.227941 1.722572,-0.403347 0.05157,-0.01704 0.103202,-0.0345 0.154834,-0.05239 0.578036,-0.200278 1.130051,-0.444575 1.603279,-0.720114 0.521544,-0.303671 0.897396,-0.616052 1.131337,-0.912422 0.07164,-0.09076 0.128019,-0.177561 0.170718,-0.259148 0.04889,-0.09341 0.08049,-0.188976 0.09704,-0.280809 0.04818,-0.267388 -0.03622,-0.435649 -0.07067,-0.514198 -0.06427,0.08342 -0.178813,0.151657 -0.358112,0.25137 -0.05988,0.0333 -0.123116,0.069 -0.186854,0.110761 -0.05593,0.03664 -0.11936,0.07941 -0.193021,0.128056 -0.246357,0.162689 -0.572682,0.367134 -1.060028,0.609791 -0.441152,0.219657 -0.935731,0.431038 -1.475388,0.630065 -0.04759,0.01755 -0.09517,0.03487 -0.14271,0.05197 -0.491698,0.176793 -1.018525,0.357546 -1.576872,0.520531 -0.597877,0.174524 -1.206736,0.321067 -1.802006,0.413986 -0.465307,0.07263 -0.910587,0.110589 -1.324652,0.106079 -0.130289,-0.0014 -0.26313,-0.0065 -0.397015,-0.01597 -0.536368,-0.03801 -1.032761,-0.142797 -1.454914,-0.326418 -0.228215,-0.09926 -0.417836,-0.214155 -0.575822,-0.337295 -0.222069,-0.17309 -0.362265,-0.347711 -0.449351,-0.472738 z"
       id="path55"
       sodipodi:nodetypes="cc"
       inkscape:path-effect="#path-effect55"
       inkscape:original-d="m 31.882292,43.19323 c 1.838112,3.025802 10.751501,0.337066 10.996745,-1.670183" /><path
       style="fill:#63474d;fill-opacity:1;fill-rule:nonzero;stroke:#63474d;stroke-width:0.0529167;stroke-linecap:square;stroke-linejoin:miter;stroke-dasharray:none;stroke-dashoffset:0;stroke-opacity:1;paint-order:fill markers stroke"
       d="m 31.277103,45.549772 c 0.808954,0.07001 2.15513,0.1696 3.886205,0.178144 0.291552,0.0014 0.594986,9.98e-4 0.909185,-0.0019 1.575006,-0.01453 3.229446,-0.08982 4.7167,-0.245773 0.207175,-0.02172 0.408103,-0.04471 0.602341,-0.06892 0.486232,-0.06058 0.962147,-0.129218 1.412106,-0.20736 0.629104,-0.109253 1.174976,-0.23146 1.622092,-0.3671 0.242198,-0.07348 0.449552,-0.149107 0.62456,-0.226609 0.124992,-0.05535 0.23213,-0.11106 0.323137,-0.166827 0.05351,-0.03279 0.10363,-0.06753 0.149771,-0.103749 0.134723,-0.105739 0.227758,-0.217783 0.28091,-0.324771 0.03072,-0.06183 0.04608,-0.11778 0.05163,-0.166205 0.0077,-0.06733 -0.0041,-0.115265 -0.01197,-0.143911 -0.01524,0.02792 -0.04262,0.06009 -0.08738,0.09171 -0.03151,0.02226 -0.06973,0.04309 -0.116726,0.06449 -0.08054,0.03667 -0.185571,0.0745 -0.319008,0.120697 -0.0578,0.02001 -0.08806,0.03034 -0.145861,0.05035 -0.08711,0.03021 -0.187611,0.0641 -0.306049,0.101429 -0.166249,0.05239 -0.361245,0.109443 -0.593896,0.170371 -0.431961,0.113125 -0.95215,0.228626 -1.570692,0.341656 -0.440152,0.08043 -0.905531,0.155088 -1.384762,0.222774 -0.191273,0.02702 -0.388793,0.05405 -0.593001,0.08098 -1.486975,0.196147 -3.079155,0.353746 -4.665652,0.455551 -0.311966,0.02002 -0.613659,0.03721 -0.903551,0.05177 -1.753067,0.08804 -3.035776,0.103813 -3.880082,0.0932 z"
       id="path56-2"
       sodipodi:nodetypes="cc"
       inkscape:path-effect="#path-effect56-3"
       inkscape:original-d="m 31.277103,45.549772 c 6.006976,0.297303 14.419304,-0.575706 14.56666,-1.844976"
       transform="matrix(-0.39880476,0,0,-0.36432469,42.520609,64.618875)" /><path
       style="fill:#63474d;fill-opacity:1;fill-rule:nonzero;stroke:#63474d;stroke-width:0.0529167;stroke-linecap:square;stroke-linejoin:miter;stroke-dasharray:none;stroke-dashoffset:0;stroke-opacity:1;paint-order:fill markers stroke"
       d="m 31.706371,44.605415 c 0.615103,0.122879 1.649444,0.290524 2.94159,0.397341 0.123996,0.01025 0.243608,0.01942 0.359341,0.02776 0.842282,0.0607 1.706354,0.125825 2.500824,0.08127 0.411032,-0.02305 0.792568,-0.07524 1.129699,-0.169252 0.03272,-0.0091 0.0654,-0.01862 0.09799,-0.02849 0.362664,-0.109878 0.704067,-0.263566 0.98083,-0.470978 0.142395,-0.106714 0.263504,-0.224571 0.360125,-0.352138 0.109055,-0.143983 0.180906,-0.292543 0.218926,-0.436734 0.02226,-0.08443 0.03214,-0.164474 0.03228,-0.237645 1.57e-4,-0.08436 -0.01618,-0.165708 -0.04306,-0.240194 -0.07537,-0.20881 -0.22259,-0.337649 -0.279253,-0.4016 -0.02738,0.09669 -0.111104,0.234956 -0.222637,0.354878 -0.03737,0.04018 -0.07455,0.07527 -0.106355,0.107693 -0.02804,0.02858 -0.05607,0.05602 -0.08707,0.08448 -0.0503,0.04619 -0.111162,0.09754 -0.182948,0.150268 -0.06536,0.04801 -0.144017,0.10031 -0.24098,0.155306 -0.195206,0.110717 -0.43537,0.21584 -0.73903,0.31904 -0.02653,0.009 -0.05326,0.01792 -0.0802,0.02673 -0.28234,0.09232 -0.596003,0.190843 -0.968775,0.288736 -0.712674,0.187155 -1.53548,0.341857 -2.368897,0.396299 -0.113683,0.0074 -0.23193,0.01387 -0.354341,0.01921 -1.246987,0.05443 -2.355601,-0.02443 -2.948057,-0.07198 z"
       id="path55-9"
       sodipodi:nodetypes="cc"
       inkscape:path-effect="#path-effect55-75"
       inkscape:original-d="m 31.706371,44.605415 c 3.743926,0.522383 8.787046,0.304971 8.299285,-1.830659"
       transform="matrix(-0.39880476,0,0,-0.36432469,42.520609,64.618875)" /></g></svg>
